<svg xmlns="http://www.w3.org/2000/svg" viewBox="0 0 640 400" role="img" aria-label="Symbolea">
  <defs>
    <linearGradient id="bg" x1="0" y1="0" x2="1" y2="1">
      <stop offset="0" stop-color="#2b3f6e"/>
      <stop offset="1" stop-color="#141e36"/>
    </linearGradient>
  </defs>
  <rect width="640" height="400" fill="url(#bg)"/>
  <rect x="60" y="48" width="520" height="304" rx="12" fill="#faf7f2"/>
  <rect x="60" y="48" width="520" height="34" rx="12" fill="#e8e2d6"/>
  <circle cx="84" cy="65" r="5" fill="#c9a227"/>
  <circle cx="102" cy="65" r="5" fill="#16584e"/>
  <circle cx="120" cy="65" r="5" fill="#4c5a60"/>
  <rect x="92" y="112" width="220" height="18" rx="9" fill="#1e2528" opacity="0.85"/>
  <rect x="92" y="144" width="320" height="10" rx="5" fill="#4c5a60" opacity="0.5"/>
  <rect x="92" y="162" width="280" height="10" rx="5" fill="#4c5a60" opacity="0.35"/>
  <rect x="92" y="196" width="110" height="30" rx="15" fill="#2b3f6e"/>
  <rect x="92" y="252" width="140" height="72" rx="8" fill="#e8e2d6"/>
  <rect x="248" y="252" width="140" height="72" rx="8" fill="#e8e2d6"/>
  <rect x="404" y="252" width="140" height="72" rx="8" fill="#e8e2d6"/>
  <text x="320" y="388" text-anchor="middle" font-family="Georgia, serif" font-size="20" fill="#faf7f2">Symbolea — captures anonymisées à venir</text>
</svg>
