<svg xmlns="http://www.w3.org/2000/svg" viewBox="0 0 100 100" width="100" height="100" role="img" aria-label="DumAlgo">
  <polygon points="50,50 50,6 88.1,28" fill="#0F4436"/>
  <polygon points="50,50 88.1,28 88.1,72" fill="#16513F"/>
  <polygon points="50,50 88.1,72 50,94" fill="#2E7A5F"/>
  <polygon points="50,50 50,94 11.9,72" fill="#23684F"/>
  <polygon points="50,50 11.9,72 11.9,28" fill="#1C5C48"/>
  <polygon points="50,50 11.9,28 50,6" fill="#1A5747"/>
  <polygon points="50,34 63.9,42 50,50 36.1,42" fill="#F2C94C"/>
  <polygon points="63.9,42 63.9,58 50,66 50,50" fill="#DCE8E0"/>
  <polygon points="36.1,42 50,50 50,66 36.1,58" fill="#FFFFFF"/>
</svg>
