<svg xmlns="http://www.w3.org/2000/svg" viewBox="0 0 100 100" width="100" height="100" role="img" aria-label="DumAlgo">
  <polygon points="50,6 88.1,28 88.1,72 50,94 11.9,72 11.9,28" fill="none" stroke="#EAF6F0" stroke-width="2"/>
  <line x1="50" y1="50" x2="50" y2="6" stroke="#EAF6F0" stroke-width="1"/>
  <line x1="50" y1="50" x2="88.1" y2="28" stroke="#EAF6F0" stroke-width="1"/>
  <line x1="50" y1="50" x2="88.1" y2="72" stroke="#EAF6F0" stroke-width="1"/>
  <line x1="50" y1="50" x2="50" y2="94" stroke="#EAF6F0" stroke-width="1"/>
  <line x1="50" y1="50" x2="11.9" y2="72" stroke="#EAF6F0" stroke-width="1"/>
  <line x1="50" y1="50" x2="11.9" y2="28" stroke="#EAF6F0" stroke-width="1"/>
  <polygon points="50,34 63.9,42 50,50 36.1,42" fill="#F2C94C"/>
  <polygon points="63.9,42 63.9,58 50,66 50,50" fill="none" stroke="#EAF6F0" stroke-width="1.5"/>
  <polygon points="36.1,42 50,50 50,66 36.1,58" fill="#EAF6F0"/>
</svg>
